<?xml version="1.0" encoding="UTF-8" standalone="no"?>
<svg
   xmlns:dc="http://purl.org/dc/elements/1.1/"
   xmlns:cc="http://creativecommons.org/ns#"
   xmlns:rdf="http://www.w3.org/1999/02/22-rdf-syntax-ns#"
   xmlns:svg="http://www.w3.org/2000/svg"
   xmlns="http://www.w3.org/2000/svg"
   xmlns:xlink="http://www.w3.org/1999/xlink"
   xmlns:sodipodi="http://sodipodi.sourceforge.net/DTD/sodipodi-0.dtd"
   xmlns:inkscape="http://www.inkscape.org/namespaces/inkscape"
   version="1.0"
   width="249.4127pt"
   height="184.41287pt"
   viewBox="0 0 249.4127 184.41287"
   preserveAspectRatio="xMidYMid meet"
   id="svg1101"
   sodipodi:docname="Atheios.svg"
   inkscape:version="0.92.3 (2405546, 2018-03-11)">
  <defs
     id="defs1105">
    <linearGradient
       inkscape:collect="always"
       id="linearGradient1122">
      <stop
         style="stop-color:#00689b;stop-opacity:1"
         offset="0"
         id="stop1118" />
      <stop
         style="stop-color:#0096c9;stop-opacity:1"
         offset="1"
         id="stop1120" />
    </linearGradient>
    <linearGradient
       inkscape:collect="always"
       xlink:href="#linearGradient1122"
       id="linearGradient1124"
       x1="1346.708"
       y1="736.77734"
       x2="1360.1458"
       y2="2328.8923"
       gradientUnits="userSpaceOnUse" />
    <linearGradient
       inkscape:collect="always"
       xlink:href="#linearGradient1122"
       id="linearGradient1128"
       gradientUnits="userSpaceOnUse"
       x1="1346.708"
       y1="736.77734"
       x2="1360.1458"
       y2="2328.8923" />
    <linearGradient
       inkscape:collect="always"
       xlink:href="#linearGradient1122"
       id="linearGradient1130"
       gradientUnits="userSpaceOnUse"
       x1="1346.708"
       y1="736.77734"
       x2="1360.1458"
       y2="2328.8923" />
  </defs>
  <sodipodi:namedview
     pagecolor="#ffffff"
     bordercolor="#666666"
     borderopacity="1"
     objecttolerance="10"
     gridtolerance="10"
     guidetolerance="10"
     inkscape:pageopacity="0"
     inkscape:pageshadow="2"
     inkscape:window-width="640"
     inkscape:window-height="480"
     id="namedview1103"
     showgrid="false"
     inkscape:zoom="1.2597656"
     inkscape:cx="280.97105"
     inkscape:cy="60.845535"
     inkscape:current-layer="svg1101" />
  <metadata
     id="metadata1093">
Created by potrace 1.15, written by Peter Selinger 2001-2017
<rdf:RDF>
  <cc:Work
     rdf:about="">
    <dc:format>image/svg+xml</dc:format>
    <dc:type
       rdf:resource="http://purl.org/dc/dcmitype/StillImage" />
    <dc:title></dc:title>
  </cc:Work>
</rdf:RDF>
</metadata>
  <g
     transform="matrix(0.1,0,0,-0.1,-4.3903005,249.41287)"
     id="g1099"
     style="fill:url(#linearGradient1124);fill-opacity:1;stroke:none">
    <path
       d="m 1090,2485 c -42,-14 -94,-58 -128,-108 -25,-37 -242,-425 -242,-434 0,-2 102,-3 228,-3 h 227 l 45,86 c 42,79 47,85 74,82 27,-3 41,-26 215,-348 102,-190 196,-362 208,-383 l 22,-37 h -229 -230 v -160 -160 l 316,-2 316,-3 50,-90 c 28,-49 68,-124 90,-165 65,-120 41,-111 277,-108 l 206,3 3,23 c 3,21 -219,432 -791,1467 -138,249 -167,289 -242,327 -36,19 -59,21 -213,22 -95,1 -186,-4 -202,-9 z"
       id="path1095"
       inkscape:connector-curvature="0"
       style="fill:url(#linearGradient1128);fill-opacity:1" />
    <path
       d="M 586,1698 C 571,1672 108,825 65,743 48,710 41,683 45,670 51,651 59,650 260,650 h 209 l 24,33 c 13,17 57,95 97,172 40,77 114,214 163,305 213,391 297,548 297,554 0,3 -101,6 -225,6 -222,0 -225,0 -239,-22 z"
       id="path1097"
       inkscape:connector-curvature="0"
       style="fill:url(#linearGradient1130);fill-opacity:1" />
  </g>
</svg>
